<?xml version="1.0" encoding="utf-8"?>
<!-- Generator: Adobe Illustrator 19.0.0, SVG Export Plug-In . SVG Version: 6.00 Build 0)  -->
<svg version="1.1" id="Слой_1" xmlns="http://www.w3.org/2000/svg" xmlns:xlink="http://www.w3.org/1999/xlink" x="0px" y="0px"
	 viewBox="0 0 841.9 595.3" style="enable-background:new 0 0 841.9 595.3;" xml:space="preserve">
<style type="text/css">
	.st0{display:none;}
	.st1{display:inline;}
	.st2{clip-path:url(#XMLID_4_);fill:#CCCCCC;}
	.st3{fill:#FFEE58;}
	.st4{fill:#A5A5A5;}
	.st5{fill:#353130;}
	.st6{fill:#FFFFFF;}
	.st7{fill:#E8EBEF;}
	.st8{fill:#EFEBE9;}
	.st9{fill:#24AEE4;}
	.st10{fill:#544127;}
	.st11{clip-path:url(#XMLID_5_);fill:#A5A5A5;}
	.st12{fill:#916E38;}
	.st13{clip-path:url(#XMLID_6_);fill:#A5A5A5;}
	.st14{clip-path:url(#XMLID_7_);fill:#A5A5A5;}
	.st15{fill:#C1C1C1;}
	.st16{fill:#CCCCCC;}
	.st17{fill:#B74A43;}
	.st18{clip-path:url(#XMLID_9_);fill:#A5A5A5;}
	.st19{clip-path:url(#XMLID_134_);fill:#A5A5A5;}
	.st20{fill:#043750;}
	.st21{display:inline;fill:#FFFFFF;}
	.st22{display:inline;fill:#353130;}
	.st23{display:inline;fill:#EA7927;}
	.st24{display:inline;fill:#24AEE4;}
	.st25{display:inline;fill:#1493C9;}
	.st26{display:inline;fill:#136674;}
	.st27{display:inline;fill:#1C3F73;}
	.st28{clip-path:url(#XMLID_135_);fill:#C6C5C5;}
	.st29{fill:#194626;}
	.st30{fill:#7BA842;}
	.st31{fill:#1493C9;}
	.st32{fill:#EA7927;}
	.st33{fill:#FADB05;}
	.st34{fill:#B84B44;}
	.st35{fill:#8D6C2A;}
	.st36{fill:#363130;}
	.st37{fill:#1C3F73;}
	.st38{fill:#64595A;}
	.st39{fill:#6D4C41;}
	.st40{fill:#4E342E;}
	.st41{fill:#136674;}
	.st42{clip-path:url(#XMLID_171_);fill:#DDDDDC;}
	.st43{clip-path:url(#XMLID_172_);fill:#DDDDDC;}
	.st44{font-family:'Roboto-Bold';}
	.st45{font-size:6px;}
	.st46{display:none;fill:#EFEBE9;}
	.st47{display:none;fill:#929497;}
	.st48{display:none;fill:#A6A8AB;}
	.st49{display:none;fill:#808184;}
	.st50{display:none;fill:#BBBDBF;}
	.st51{display:none;fill:#6D6E70;}
	.st52{clip-path:url(#XMLID_173_);fill:#DDDDDC;}
	.st53{clip-path:url(#XMLID_174_);}
	.st54{clip-path:url(#XMLID_175_);}
	.st55{clip-path:url(#XMLID_176_);}
	.st56{fill:#59C1EF;}
	.st57{font-family:'Roboto-Light';}
	.st58{font-size:140px;}
	.st59{letter-spacing:-8;}
	.st60{letter-spacing:-6;}
	.st61{letter-spacing:-9;}
	.st62{clip-path:url(#XMLID_176_);fill:#59C1EF;}
	.st63{opacity:0.75;clip-path:url(#XMLID_176_);}
	.st64{clip-path:url(#XMLID_177_);fill:#FFFFFF;}
	.st65{clip-path:url(#XMLID_178_);fill:#FFFFFF;}
	.st66{clip-path:url(#XMLID_179_);fill:#FFFFFF;}
	.st67{clip-path:url(#XMLID_180_);fill:#FFFFFF;}
	.st68{clip-path:url(#XMLID_176_);fill:#FFFFFF;}
</style>
<g id="XMLID_167_" class="st0">
	<g id="XMLID_168_" class="st1">
		<defs>
			<rect id="XMLID_169_" x="370.2" y="358.2" width="90.6" height="3.5"/>
		</defs>
		<use xlink:href="#XMLID_169_"  style="overflow:visible;fill:#CCCCCC;"/>
		<clipPath id="XMLID_4_">
			<use xlink:href="#XMLID_169_"  style="overflow:visible;"/>
		</clipPath>
		<rect id="XMLID_170_" x="370.2" y="358.2" class="st2" width="90.6" height="3.5"/>
	</g>
</g>
<g id="XMLID_189_">
	<rect id="XMLID_191_" x="0" class="st3" width="841.4" height="595.3"/>
	<rect id="XMLID_190_" x="-0.5" y="518.6" class="st4" width="842" height="76.7"/>
</g>
<g id="XMLID_136_">
	<g id="XMLID_160_">
		<path id="XMLID_166_" class="st5" d="M61.4,350.2l-1.7-0.5c0.3-1.1,0.8-4.2-0.3-5.6c-0.4-0.5-1-0.8-1.8-0.8
			c-0.9,0-1.5,0.3-1.9,0.8c-1.2,1.4-0.8,4.5-0.6,5.6l-1.8,0.4c0-0.2-1-4.7,1-7.1c0.8-1,1.9-1.5,3.3-1.5c1.8,0,2.7,0.8,3.3,1.5
			C62.6,345.4,61.5,349.7,61.4,350.2"/>
		<rect id="XMLID_165_" x="55.7" y="409.5" class="st5" width="3.6" height="67.3"/>
		<rect id="XMLID_164_" x="40.5" y="476.5" class="st5" width="34.3" height="3.9"/>
		<rect id="XMLID_163_" x="54.1" y="405" class="st5" width="6.9" height="4.5"/>
		<path id="XMLID_162_" class="st6" d="M57.5,348.9c-15.9,0-28.8,12.9-28.8,28.8c0,15.9,12.8,28.7,28.7,28.8L57.5,348.9L57.5,348.9z
			"/>
		<path id="XMLID_161_" class="st7" d="M57.6,348.9l-0.1,57.5c0,0,0.1,0,0.1,0c15.9,0,28.8-12.9,28.8-28.8
			C86.3,361.8,73.4,348.9,57.6,348.9"/>
	</g>
	<g id="XMLID_149_">
		<rect id="XMLID_159_" x="103.3" y="448.6" class="st6" width="38.6" height="31.4"/>
		<rect id="XMLID_158_" x="106.3" y="451.7" class="st5" width="32.7" height="25.4"/>
		<path id="XMLID_157_" class="st8" d="M127.1,456c0,1.4-1.1,2.6-2.6,2.6c-1.4,0-2.6-1.1-2.6-2.6c0-1.4,1.1-2.6,2.6-2.6
			C125.9,453.4,127.1,454.6,127.1,456"/>
		<rect id="XMLID_156_" x="106.3" y="474.6" class="st9" width="32.7" height="2.4"/>
	</g>
	<rect id="XMLID_148_" x="21.5" y="551.7" class="st10" width="141.2" height="21.6"/>
	<g id="XMLID_144_">
		<g id="XMLID_145_">
			<defs>
				<rect id="XMLID_146_" x="21.5" y="551.7" width="141.2" height="4.6"/>
			</defs>
			<use xlink:href="#XMLID_146_"  style="overflow:visible;fill:#A5A5A5;"/>
			<clipPath id="XMLID_5_">
				<use xlink:href="#XMLID_146_"  style="overflow:visible;"/>
			</clipPath>
			<rect id="XMLID_147_" x="21.5" y="551.7" class="st11" width="141.2" height="4.6"/>
		</g>
	</g>
	<rect id="XMLID_143_" x="15.3" y="480.4" class="st12" width="153.4" height="71.4"/>
	<rect id="XMLID_142_" x="21.5" y="485.4" class="st10" width="140.9" height="44"/>
	<rect id="XMLID_141_" x="57.5" y="504.4" class="st6" width="68.8" height="5.9"/>
	<g id="XMLID_137_">
		<g id="XMLID_138_">
			<defs>
				<rect id="XMLID_139_" x="57.5" y="510.3" width="68.8" height="3.1"/>
			</defs>
			<use xlink:href="#XMLID_139_"  style="overflow:visible;fill:#A5A5A5;"/>
			<clipPath id="XMLID_6_">
				<use xlink:href="#XMLID_139_"  style="overflow:visible;"/>
			</clipPath>
			<rect id="XMLID_140_" x="57.5" y="510.3" class="st13" width="68.8" height="3.1"/>
		</g>
	</g>
</g>
<g id="XMLID_114_">
	<g id="XMLID_119_">
		<g id="XMLID_130_">
			<path id="XMLID_196_" class="st10" d="M227.5,491.9c-7.9,0-14.4-6.5-14.4-14.4v-57.1c0-7.9,6.5-14.4,14.4-14.4h385.8
				c7.9,0,14.4,6.5,14.4,14.4v57.1c0,7.9-6.5,14.4-14.4,14.4H227.5z"/>
			<path id="XMLID_193_" class="st12" d="M613.4,409.5c6,0,10.9,4.9,10.9,10.9v57.1c0,6-4.9,10.9-10.9,10.9H227.5
				c-6,0-10.9-4.9-10.9-10.9v-57.1c0-6,4.9-10.9,10.9-10.9H613.4 M613.4,402.5H227.5c-9.8,0-17.9,8.1-17.9,17.9v57.1
				c0,9.8,8.1,17.9,17.9,17.9h385.8c9.8,0,17.9-8.1,17.9-17.9v-57.1C631.3,410.6,623.2,402.5,613.4,402.5L613.4,402.5z"/>
		</g>
		<rect id="XMLID_129_" x="199.9" y="554" class="st10" width="441.1" height="19.9"/>
		<rect id="XMLID_128_" x="196" y="487" class="st12" width="448.9" height="66.9"/>
		<g id="XMLID_124_">
			<g id="XMLID_125_">
				<defs>
					<rect id="XMLID_126_" x="199.9" y="554" width="441.1" height="4.1"/>
				</defs>
				<use xlink:href="#XMLID_126_"  style="overflow:visible;fill:#A5A5A5;"/>
				<clipPath id="XMLID_7_">
					<use xlink:href="#XMLID_126_"  style="overflow:visible;"/>
				</clipPath>
				<rect id="XMLID_127_" x="199.9" y="554" class="st14" width="441.1" height="4.1"/>
			</g>
		</g>
		<rect id="XMLID_123_" x="193.2" y="480.4" class="st10" width="454.6" height="30.1"/>
		<rect id="XMLID_122_" x="196" y="510.4" class="st15" width="448.9" height="3.1"/>
		<path id="XMLID_121_" class="st6" d="M647.7,479.8c0-8.6-26.5-15.6-58.9-15.6H252.1c-32.4,0-58.9,7-58.9,15.6c0,0.2,0,0.4,0.1,0.6
			h454.5C647.7,480.2,647.7,480,647.7,479.8z"/>
		<path id="XMLID_120_" class="st16" d="M647.4,478H193.6c-0.6,0.8-0.4,2.4-0.4,2.4h454.6C647.8,480.4,647.8,478.5,647.4,478z"/>
	</g>
	<path id="XMLID_118_" class="st17" d="M379.5,448.8c0-7-5.7-12.6-12.6-12.6H262.3c-7,0-12.6,5.7-12.6,12.6v15.4h129.8V448.8z"/>
	<path id="XMLID_117_" class="st17" d="M583.3,448.8c0-7-5.7-12.6-12.6-12.6H466.1c-7,0-12.6,5.7-12.6,12.6v15.4h129.8V448.8z"/>
	<rect id="XMLID_116_" x="249.7" y="461.4" class="st16" width="129.8" height="2.8"/>
	<rect id="XMLID_115_" x="453.5" y="461.4" class="st16" width="129.8" height="2.8"/>
</g>
<g id="XMLID_93_">
	<rect id="XMLID_113_" x="679.4" y="551.8" class="st10" width="140.9" height="21.5"/>
	<g id="XMLID_109_">
		<g id="XMLID_110_">
			<defs>
				<rect id="XMLID_111_" x="679.4" y="551.8" width="140.9" height="4.6"/>
			</defs>
			<use xlink:href="#XMLID_111_"  style="overflow:visible;fill:#A5A5A5;"/>
			<clipPath id="XMLID_9_">
				<use xlink:href="#XMLID_111_"  style="overflow:visible;"/>
			</clipPath>
			<rect id="XMLID_112_" x="679.4" y="551.8" class="st18" width="140.9" height="4.6"/>
		</g>
	</g>
	<rect id="XMLID_108_" x="673.2" y="480.6" class="st12" width="153" height="71.2"/>
	<rect id="XMLID_107_" x="679.4" y="485.6" class="st10" width="140.6" height="43.9"/>
	<rect id="XMLID_106_" x="715.3" y="504.5" class="st6" width="68.6" height="5.9"/>
	<g id="XMLID_102_">
		<g id="XMLID_103_">
			<defs>
				<rect id="XMLID_104_" x="715.3" y="510.5" width="68.6" height="3.1"/>
			</defs>
			<use xlink:href="#XMLID_104_"  style="overflow:visible;fill:#A5A5A5;"/>
			<clipPath id="XMLID_134_">
				<use xlink:href="#XMLID_104_"  style="overflow:visible;"/>
			</clipPath>
			<rect id="XMLID_105_" x="715.3" y="510.5" class="st19" width="68.6" height="3.1"/>
		</g>
	</g>
	<g id="XMLID_98_">
		<rect id="XMLID_101_" x="695.1" y="466.2" class="st20" width="73.3" height="14.4"/>
		<rect id="XMLID_100_" x="695.1" y="468.1" class="st6" width="65.9" height="10.7"/>
		<rect id="XMLID_99_" x="695.1" y="468.1" class="st16" width="65.9" height="3.1"/>
	</g>
	<path id="XMLID_95_" class="st6" d="M714.5,439.4v3.2c0,0-0.1,0-0.1,0c-4.4,0-8,3.6-8,8v3.7c0,4.4,3.6,8,8,8c0,0,0.1,0,0.1,0v4
		h20.1v-26.8H714.5z M714.4,458.8c-2.5,0-4.5-2-4.5-4.5v-3.7c0-2.5,2-4.5,4.5-4.5c0,0,0.1,0,0.1,0L714.4,458.8
		C714.4,458.7,714.4,458.8,714.4,458.8z"/>
	<rect id="XMLID_94_" x="714.5" y="439.4" class="st16" width="20.1" height="2.3"/>
</g>
<g id="XMLID_2_">
	<g id="XMLID_81_" class="st0">
		<rect id="XMLID_92_" x="130.1" y="216.6" class="st21" width="73.8" height="60.1"/>
		<rect id="XMLID_91_" x="135.7" y="222.4" class="st22" width="62.5" height="48.5"/>
		<path id="XMLID_90_" class="st23" d="M185.6,236.5c0,4.7-3.8,8.4-8.4,8.4c-4.7,0-8.4-3.8-8.4-8.4c0-4.7,3.8-8.4,8.4-8.4
			C181.8,228.1,185.6,231.9,185.6,236.5"/>
		<rect id="XMLID_89_" x="169.9" y="266.2" class="st24" width="28.3" height="4.7"/>
		<polygon id="XMLID_88_" class="st25" points="150.2,270.9 164.5,246.2 178.7,270.9 		"/>
		<polygon id="XMLID_87_" class="st26" points="150.2,240.2 135.7,265.3 135.7,270.9 167.9,270.9 		"/>
		<polygon id="XMLID_86_" class="st27" points="177.1,251.7 166.1,270.9 168,270.9 188.2,270.9 		"/>
		<g id="XMLID_82_" class="st1">
			<g id="XMLID_83_">
				<defs>
					<rect id="XMLID_84_" x="167" y="216.6" width="36.9" height="60.1"/>
				</defs>
				<clipPath id="XMLID_135_">
					<use xlink:href="#XMLID_84_"  style="overflow:visible;"/>
				</clipPath>
				<rect id="XMLID_85_" x="167" y="216.6" class="st28" width="36.9" height="60.1"/>
			</g>
		</g>
	</g>
	<rect id="XMLID_80_" x="383.1" y="224" class="st12" width="71.8" height="16.8"/>
	<rect id="XMLID_79_" x="418" y="269.6" class="st29" width="66.1" height="8.8"/>
	<rect id="XMLID_78_" x="386.3" y="262.4" class="st30" width="66.1" height="7.2"/>
	<rect id="XMLID_77_" x="378" y="253.9" class="st31" width="75" height="8.4"/>
	<rect id="XMLID_76_" x="395.6" y="246.6" class="st32" width="75" height="7.3"/>
	<rect id="XMLID_75_" x="416.4" y="248.6" class="st6" width="41" height="3.5"/>
	<rect id="XMLID_74_" x="409.3" y="246.6" class="st33" width="1.7" height="7.3"/>
	<rect id="XMLID_73_" x="463.5" y="246.6" class="st33" width="1.7" height="7.3"/>
	<rect id="XMLID_72_" x="426.5" y="273" class="st6" width="16.1" height="1.9"/>
	<rect id="XMLID_71_" x="450.5" y="273" class="st6" width="25.5" height="1.9"/>
	<rect id="XMLID_70_" x="399.9" y="256.7" class="st6" width="31.8" height="2.9"/>
	<rect id="XMLID_69_" x="403.6" y="264.8" class="st29" width="31.4" height="2.3"/>
	
		<rect id="XMLID_68_" x="469.9" y="202.1" transform="matrix(0.9923 -0.1241 0.1241 0.9923 -26.1167 60.8717)" class="st31" width="11" height="75.9"/>
	
		<rect id="XMLID_67_" x="480.6" y="202.1" transform="matrix(0.9922 -0.1243 0.1243 0.9922 -26.0521 62.496)" class="st32" width="14.2" height="75.9"/>
	
		<rect id="XMLID_66_" x="500.3" y="206.5" transform="matrix(0.9922 -0.1243 0.1243 0.9922 -26.0983 65.2286)" class="st34" width="18.9" height="70.7"/>
	
		<rect id="XMLID_65_" x="494.1" y="194.7" transform="matrix(0.9922 -0.1244 0.1244 0.9922 -25.5682 63.654)" class="st35" width="5.6" height="83.6"/>
	
		<rect id="XMLID_64_" x="520" y="217.1" transform="matrix(0.9922 -0.1244 0.1244 0.9922 -26.7542 66.9623)" class="st36" width="5.6" height="61.1"/>
	<polygon id="XMLID_63_" class="st10" points="527.3,221.8 522.8,225.2 563.4,278.4 567.9,275 	"/>
	<rect id="XMLID_62_" x="385.9" y="253.9" class="st37" width="2.5" height="8.4"/>
	<rect id="XMLID_61_" x="441" y="253.9" class="st37" width="2.5" height="8.4"/>
	<path id="XMLID_60_" class="st33" d="M400.5,250.3c0-1.2,1-2.2,2.2-2.2c1.2,0,2.2,1,2.2,2.2c0,1.2-1,2.2-2.2,2.2
		C401.5,252.5,400.5,251.5,400.5,250.3"/>
	<path id="XMLID_59_" class="st10" d="M389.9,240.3c0,1.5-0.6,2.7-1.4,2.7c-0.8,0-1.4-1.2-1.4-2.7v-14.4c0-1.5,0.6-2.7,1.4-2.7
		c0.8,0,1.4,1.2,1.4,2.7V240.3z"/>
	<path id="XMLID_58_" class="st10" d="M410.7,240.3c0,1.5-0.6,2.7-1.4,2.7c-0.8,0-1.4-1.2-1.4-2.7v-14.4c0-1.5,0.6-2.7,1.4-2.7
		c0.8,0,1.4,1.2,1.4,2.7V240.3z"/>
	<path id="XMLID_57_" class="st10" d="M432.2,240.3c0,1.5-0.6,2.7-1.4,2.7c-0.8,0-1.4-1.2-1.4-2.7v-14.4c0-1.5,0.6-2.7,1.4-2.7
		c0.8,0,1.4,1.2,1.4,2.7V240.3z"/>
	<path id="XMLID_56_" class="st10" d="M451.3,240.3c0,1.5-0.6,2.7-1.4,2.7c-0.8,0-1.4-1.2-1.4-2.7v-14.4c0-1.5,0.6-2.7,1.4-2.7
		c0.8,0,1.4,1.2,1.4,2.7V240.3z"/>
	<rect id="XMLID_55_" x="371.7" y="240.8" class="st34" width="81" height="5.8"/>
	<rect id="XMLID_54_" x="376" y="240.8" class="st38" width="1.2" height="5.8"/>
	<rect id="XMLID_53_" x="389.9" y="242.9" class="st6" width="11.2" height="1.6"/>
	<rect id="XMLID_52_" x="407.7" y="242.9" class="st6" width="29.2" height="1.6"/>
	<rect id="XMLID_51_" x="448.6" y="240.8" class="st38" width="1.2" height="5.8"/>
	<rect id="XMLID_50_" x="405.8" y="228.7" class="st30" width="54.5" height="12.1"/>
	<path id="XMLID_49_" class="st6" d="M410,234.8c0-1.8,1.5-3.3,3.3-3.3c1.8,0,3.3,1.5,3.3,3.3c0,1.8-1.5,3.3-3.3,3.3
		C411.5,238.1,410,236.6,410,234.8"/>
	<rect id="XMLID_48_" x="423.5" y="233" class="st6" width="33.6" height="2.8"/>
	<polygon id="XMLID_47_" class="st37" points="477.5,215.2 466.9,216.3 467.2,218.8 477.8,217.6 	"/>
	<polygon id="XMLID_46_" class="st37" points="483.2,260.6 472.6,261.7 472.9,264.2 483.5,263 	"/>
	<polygon id="XMLID_45_" class="st33" points="490.7,209.8 476.8,211.4 477.1,213.8 491,212.2 	"/>
	<polygon id="XMLID_44_" class="st33" points="497.8,265.1 483.9,266.7 484.2,269.1 498.1,267.5 	"/>
	<path id="XMLID_43_" class="st6" d="M513,217.9c0,3.4-2.7,6.1-6.1,6.1c-3.4,0-6.1-2.7-6.1-6.1c0-3.4,2.7-6.1,6.1-6.1
		C510.2,211.8,513,214.5,513,217.9"/>
	<rect id="XMLID_42_" x="646.3" y="201.5" class="st39" width="52.2" height="76.9"/>
	<rect id="XMLID_41_" x="641.8" y="201.5" class="st40" width="4.5" height="76.9"/>
	<rect id="XMLID_40_" x="652.2" y="217" class="st40" width="39" height="19.6"/>
	<rect id="XMLID_39_" x="251.8" y="240.9" class="st20" width="89.3" height="17.5"/>
	<rect id="XMLID_38_" x="251.8" y="243.1" class="st6" width="80.3" height="13"/>
	<rect id="XMLID_37_" x="95.3" y="278" class="st10" width="650.3" height="11.4"/>
	<g id="XMLID_30_">
		<rect id="XMLID_36_" x="237.2" y="258.3" class="st41" width="99.9" height="19.6"/>
		<rect id="XMLID_35_" x="237.2" y="260.6" class="st6" width="85.4" height="13.8"/>
		<g id="XMLID_31_">
			<g id="XMLID_32_">
				<defs>
					<rect id="XMLID_33_" x="237.2" y="260.6" width="85.4" height="2.2"/>
				</defs>
				<clipPath id="XMLID_171_">
					<use xlink:href="#XMLID_33_"  style="overflow:visible;"/>
				</clipPath>
				<rect id="XMLID_34_" x="237.2" y="260.6" class="st42" width="85.4" height="2.2"/>
			</g>
		</g>
	</g>
	<g id="XMLID_26_">
		<g id="XMLID_27_">
			<defs>
				<rect id="XMLID_28_" x="251.8" y="242.9" width="80.3" height="2.1"/>
			</defs>
			<clipPath id="XMLID_172_">
				<use xlink:href="#XMLID_28_"  style="overflow:visible;"/>
			</clipPath>
			<rect id="XMLID_29_" x="251.8" y="242.9" class="st43" width="80.3" height="2.1"/>
		</g>
	</g>
	<text id="XMLID_132_" transform="matrix(1 0 0 1 654.152 228.7611)" class="st6 st44 st45">Shakespeare</text>
</g>
<g id="XMLID_232_">
	<rect id="XMLID_249_" x="125.6" y="212.1" class="st5" width="86.1" height="65.9"/>
	<rect id="XMLID_248_" x="135.9" y="222.8" class="st6" width="65.4" height="44.6"/>
	<rect id="XMLID_247_" x="143.7" y="230.9" class="st46" width="49.8" height="28.3"/>
	<rect id="XMLID_246_" x="146" y="245" class="st47" width="46" height="3.5"/>
	<rect id="XMLID_245_" x="182.9" y="240.4" class="st48" width="5.6" height="8.1"/>
	<rect id="XMLID_244_" x="162.7" y="235.8" class="st48" width="2.9" height="12.7"/>
	<rect id="XMLID_243_" x="165.6" y="240.4" class="st49" width="3.1" height="8.1"/>
	<rect id="XMLID_242_" x="168.6" y="241.8" class="st48" width="6.9" height="6.7"/>
	<rect id="XMLID_241_" x="178.5" y="241.8" class="st49" width="5.6" height="6.7"/>
	<rect id="XMLID_240_" x="159.4" y="237.1" class="st48" width="3.8" height="11.4"/>
	<rect id="XMLID_239_" x="149.3" y="241.8" class="st50" width="10.1" height="6.7"/>
	<rect id="XMLID_238_" x="150.7" y="239.7" class="st51" width="3" height="8.8"/>
	<rect id="XMLID_237_" x="157.4" y="240.4" class="st47" width="1.5" height="8.1"/>
	<g id="XMLID_233_" class="st0">
		<g id="XMLID_234_" class="st1">
			<defs>
				<rect id="XMLID_235_" x="169" y="212.1" width="42.7" height="65.9"/>
			</defs>
			<clipPath id="XMLID_173_">
				<use xlink:href="#XMLID_235_"  style="overflow:visible;"/>
			</clipPath>
			<rect id="XMLID_236_" x="169" y="212.1" class="st52" width="42.7" height="65.9"/>
		</g>
	</g>
</g>
<g id="XMLID_151_">
	<g id="XMLID_274_">
		<g id="XMLID_276_">
			<path id="XMLID_280_" class="st17" d="M384,444.1c-0.8-8.1-10-14.1-17.8-13.3c-1.5,0.1-1.5,2.5,0,2.4c6.4-0.6,14.8,4.2,15.5,11
				C381.8,445.6,384.1,445.6,384,444.1L384,444.1z"/>
		</g>
	</g>
	<g id="XMLID_152_">
		<g id="XMLID_269_">
			<path id="XMLID_273_" class="st17" d="M388.1,438.4c-1.2-8.4-11.3-13.9-19.3-12.7c-1.5,0.2-0.9,2.5,0.6,2.3
				c6.8-1,15.3,4.1,16.3,11.1C386.1,440.6,388.4,439.9,388.1,438.4L388.1,438.4z"/>
		</g>
	</g>
</g>
<g id="XMLID_150_">
	<g id="XMLID_154_">
		<g id="XMLID_265_">
			<path id="XMLID_275_" class="st17" d="M247.5,445.1c0.7-6.8,9.1-11.5,15.5-11c1.5,0.1,1.5-2.2,0-2.4c-7.8-0.7-17.1,5.3-17.8,13.3
				C245,446.6,247.4,446.6,247.5,445.1L247.5,445.1z"/>
		</g>
	</g>
	<g id="XMLID_153_">
		<g id="XMLID_260_">
			<path id="XMLID_264_" class="st17" d="M243.3,440.1c1-6.9,9.5-12,16.3-11.1c1.5,0.2,2.1-2.1,0.6-2.3c-8-1.1-18,4.3-19.3,12.7
				C240.8,440.9,243.1,441.6,243.3,440.1L243.3,440.1z"/>
		</g>
	</g>
</g>
<g id="XMLID_231_">
	<g id="XMLID_251_">
		<g id="XMLID_306_">
			<path id="XMLID_310_" class="st17" d="M587,444.1c-0.8-8.1-10-14.1-17.8-13.3c-1.5,0.1-1.5,2.5,0,2.4c6.4-0.6,14.8,4.2,15.5,11
				C584.8,445.6,587.1,445.6,587,444.1L587,444.1z"/>
		</g>
	</g>
	<g id="XMLID_250_">
		<g id="XMLID_300_">
			<path id="XMLID_304_" class="st17" d="M591.1,438.4c-1.2-8.4-11.3-13.9-19.3-12.7c-1.5,0.2-0.9,2.5,0.6,2.3
				c6.8-1,15.3,4.1,16.3,11.1C589.1,440.6,591.4,439.9,591.1,438.4L591.1,438.4z"/>
		</g>
	</g>
</g>
<g id="XMLID_155_">
	<g id="XMLID_230_">
		<g id="XMLID_294_">
			<path id="XMLID_298_" class="st17" d="M450.5,445.1c0.7-6.8,9.1-11.5,15.5-11c1.5,0.1,1.5-2.2,0-2.4c-7.8-0.7-17.1,5.3-17.8,13.3
				C448,446.6,450.4,446.6,450.5,445.1L450.5,445.1z"/>
		</g>
	</g>
	<g id="XMLID_229_">
		<g id="XMLID_288_">
			<path id="XMLID_292_" class="st17" d="M446.3,440.1c1-6.9,9.5-12,16.3-11.1c1.5,0.2,2.1-2.1,0.6-2.3c-8-1.1-18,4.3-19.3,12.7
				C443.8,440.9,446.1,441.6,446.3,440.1L446.3,440.1z"/>
		</g>
	</g>
</g>
<g id="XMLID_1_">
	<g id="XMLID_8_">
		<defs>
			<rect id="XMLID_10_" x="72.1" y="21.5" width="697.7" height="166.4"/>
		</defs>
		<clipPath id="XMLID_174_">
			<use xlink:href="#XMLID_10_"  style="overflow:visible;"/>
		</clipPath>
		<g id="XMLID_11_" class="st53">
			<defs>
				<rect id="XMLID_12_" x="72.1" y="21.5" width="697.7" height="166.4"/>
			</defs>
			<clipPath id="XMLID_175_">
				<use xlink:href="#XMLID_12_"  style="overflow:visible;"/>
			</clipPath>
			<g id="XMLID_13_" class="st54">
				<defs>
					<rect id="XMLID_14_" x="72.1" y="21.5" width="697.7" height="166.4"/>
				</defs>
				<clipPath id="XMLID_176_">
					<use xlink:href="#XMLID_14_"  style="overflow:visible;"/>
				</clipPath>
				<g id="XMLID_318_" class="st55">
					<text transform="matrix(1 0 0 1 285.5911 145.6727)"><tspan x="0" y="0" class="st56 st57 st58 st59">w</tspan><tspan x="97.3" y="0" class="st56 st57 st58 st60">a</tspan><tspan x="165.4" y="0" class="st56 st57 st58 st61">k</tspan><tspan x="224.2" y="0" class="st56 st57 st58">e</tspan></text>
				</g>
				<g id="XMLID_317_" class="st55">
					<text transform="matrix(1 0 0 1 579.1711 145.6727)" class="st56 st57 st58"> </text>
				</g>
				<g id="XMLID_316_" class="st55">
					<text transform="matrix(1 0 0 1 608.4309 145.6727)"><tspan x="0" y="0" class="st56 st57 st58 st60">u</tspan><tspan x="70.5" y="0" class="st56 st57 st58">p</tspan></text>
				</g>
				<path id="XMLID_315_" class="st62" d="M91.3,164.6c-0.2-0.3-0.1-1.1,0.6-2.8c0.8-1.9,1.6-3.5,1.8-4c1.5-3.3,3.4-6.9,3.4-6.9
					c3-5.8-1-11.1-2.6-17.1c-1.8-7.1-2.9-14.4-3.3-21.7c-0.4-8.2,0.1-16.4,1.5-24.4c1.3-7.6,4.8-14.9,5.2-22.5
					c0.2-4.6,0-9.2-0.7-13.7c-0.7-4.7-2.1-9.4-3.3-14c0.5,1.9,8.2,3.2,10,3.9c3.8,1.4,7.6,2.5,11.5,3.6c3.8,1,7.9,2.3,11.8,2.5
					c3.7,0.2,7.3-1.4,10.9-2.1c9.5-2,19-3.5,28.6-4.4c19.2-1.8,38.7-1.5,57.9,1.2c5.2,0.7,10.9,1.1,15.9,2.9
					c4.2,1.5,8.9,4.4,13.5,2.5c1.1-0.5,2.4-1.3,5.1-3.1c3.8-2.5,5.7-3.8,6.4-4.5c0.3-0.3,1.2-1.2,1.5-1.1c0.3,0.1,0.1,1,0,1.2
					c-2.2,8.1-6,14.1-3.7,22.3c2.6,9.2,5,18.2,6,27.7c1.6,15.6,0.2,28.4-1.3,36.4c-3.3,17.9-8.9,24.6-4.6,34
					c2.9,6.4,8.9,10.9,8.2,11.7c-0.6,0.6-3.9-2.3-9.3-4.8c-10.4-5-20.2-4.9-23.6-4.8c-7.6,0.2-13.1,2.3-16.1,3.1
					c-16.8,4.2-34.1,6.2-51.4,5.8c-17.2-0.4-33.8-0.5-50.5-5.6c-4.9-1.5-9.8-3.3-14.9-3.8c-3.3-0.3-6.9,0-10,1.2
					C93.6,163.8,91.7,165.1,91.3,164.6"/>
				<g id="XMLID_311_" class="st63">
					<g id="XMLID_312_">
						<defs>
							<rect id="XMLID_313_" x="252.8" y="70.2" width="11.9" height="70.5"/>
						</defs>
						<clipPath id="XMLID_177_">
							<use xlink:href="#XMLID_313_"  style="overflow:visible;"/>
						</clipPath>
						<path id="XMLID_314_" class="st64" d="M252.8,139.6c0-0.3,0.1-0.5,0.2-0.8c13.4-18.4,13.4-48.4,0.2-66.8
							c-0.3-0.4-0.3-1.1,0-1.5c0.3-0.4,0.8-0.4,1.1,0c13.9,19.3,13.8,50.6-0.2,69.8c-0.3,0.4-0.8,0.4-1.1,0
							C252.9,140.2,252.8,139.9,252.8,139.6"/>
					</g>
				</g>
				<g id="XMLID_287_" class="st63">
					<g id="XMLID_293_">
						<defs>
							<rect id="XMLID_299_" x="249.7" y="77.3" width="8.9" height="56.3"/>
						</defs>
						<clipPath id="XMLID_178_">
							<use xlink:href="#XMLID_299_"  style="overflow:visible;"/>
						</clipPath>
						<path id="XMLID_305_" class="st65" d="M249.7,132.4c0-0.3,0.1-0.6,0.2-0.8c9.4-14.4,9.4-37.8,0-52.2c-0.3-0.5-0.3-1.2,0-1.7
							c0.3-0.5,0.8-0.5,1.1,0c10.1,15.3,10.1,40.3,0,55.6c-0.3,0.5-0.8,0.5-1.1,0C249.8,133,249.7,132.7,249.7,132.4"/>
					</g>
				</g>
				<g id="XMLID_258_" class="st63">
					<g id="XMLID_259_">
						<defs>
							<rect id="XMLID_281_" x="96.6" y="70.2" width="11.9" height="70.5"/>
						</defs>
						<clipPath id="XMLID_179_">
							<use xlink:href="#XMLID_281_"  style="overflow:visible;"/>
						</clipPath>
						<path id="XMLID_282_" class="st66" d="M108.5,139.6c0,0.3-0.1,0.5-0.2,0.8c-0.3,0.4-0.8,0.4-1.1,0
							c-14-19.2-14.1-50.6-0.2-69.8c0.3-0.4,0.8-0.4,1.1,0c0.3,0.4,0.3,1.1,0,1.5c-13.3,18.5-13.2,48.4,0.2,66.8
							C108.4,139.1,108.5,139.3,108.5,139.6"/>
					</g>
				</g>
				<g id="XMLID_21_" class="st63">
					<g id="XMLID_22_">
						<defs>
							<rect id="XMLID_23_" x="102.7" y="77.3" width="8.9" height="56.3"/>
						</defs>
						<clipPath id="XMLID_180_">
							<use xlink:href="#XMLID_23_"  style="overflow:visible;"/>
						</clipPath>
						<path id="XMLID_24_" class="st67" d="M111.6,132.4c0,0.3-0.1,0.6-0.2,0.8c-0.3,0.5-0.8,0.5-1.1,0c-10.1-15.3-10.1-40.3,0-55.6
							c0.3-0.5,0.8-0.5,1.1,0c0.3,0.5,0.3,1.2,0,1.7c-9.4,14.4-9.4,37.8,0,52.2C111.5,131.8,111.6,132.1,111.6,132.4"/>
					</g>
				</g>
				<path id="XMLID_15_" class="st68" d="M206.3,88.5l-11.8-9.9l-3.3,3.9l11.8,9.9L206.3,88.5z M170,82.5l-3.3-3.9l-11.8,9.9
					l3.3,3.9L170,82.5z M181.9,94.3H178v15.4l12.2,7.3l1.9-3.2l-10.3-6.1V94.3z M180.6,84c-12.8,0-23.1,10.3-23.1,23.1
					s10.3,23.1,23.1,23.1c12.8,0,23.1-10.3,23.1-23.1S193.3,84,180.6,84 M180.6,125.1c-9.9,0-18-8-18-18s8-18,18-18
					c9.9,0,18,8,18,18S190.5,125.1,180.6,125.1"/>
			</g>
		</g>
	</g>
</g>
</svg>
