<?xml version="1.0" encoding="utf-8"?>
<!-- Generator: Adobe Illustrator 19.0.0, SVG Export Plug-In . SVG Version: 6.00 Build 0)  -->
<svg version="1.1" id="Слой_1" xmlns="http://www.w3.org/2000/svg" xmlns:xlink="http://www.w3.org/1999/xlink" x="0px" y="0px"
	 viewBox="0 0 503.9 324.8" style="enable-background:new 0 0 503.9 324.8;" xml:space="preserve">
<style type="text/css">
	.st0{display:none;}
	.st1{display:inline;fill:#808080;}
	.st2{fill:#54BFEE;}
	.st3{opacity:0.75;fill:#FFFFFF;}
	.st4{fill:#FFFFFF;}
	.st5{font-family:'Roboto-Light';}
	.st6{font-size:140px;}
	.st7{letter-spacing:-2;}
	.st8{letter-spacing:-4;}
</style>
<g id="Border" class="st0">
	<path id="XMLID_27_" class="st1" d="M488.7,15v294.9H15.2V15H488.7 M503.7,0h-15H15.2h-15v15v294.9v15h15h473.5h15v-15V15V0
		L503.7,0z"/>
</g>
<g id="Sign">
	<path id="XMLID_2_" class="st2" d="M159.2,143.8c-0.2-0.3-0.1-1.1,0.6-2.8c0.8-1.9,1.6-3.5,1.8-4c1.5-3.3,3.4-6.9,3.4-6.9
		c3-5.8-1-11.1-2.6-17.1c-1.8-7.1-2.9-14.4-3.3-21.7c-0.4-8.2,0.1-16.4,1.5-24.4c1.3-7.6,4.8-14.9,5.2-22.5c0.2-4.6,0-9.2-0.7-13.7
		c-0.7-4.7-2.1-9.4-3.3-14c0.5,1.9,8.2,3.2,10,3.9c3.8,1.4,7.6,2.5,11.5,3.6c3.8,1,7.9,2.3,11.8,2.5c3.7,0.2,7.3-1.4,10.9-2.1
		c9.5-2,19-3.5,28.6-4.4c19.2-1.8,38.7-1.5,57.9,1.2c5.2,0.7,10.9,1.1,15.9,2.9c4.2,1.5,8.9,4.4,13.5,2.5c1.1-0.5,2.4-1.3,5.1-3.1
		c3.8-2.5,5.7-3.8,6.4-4.5c0.3-0.3,1.2-1.2,1.5-1.1c0.3,0.2,0.1,1,0,1.2c-2.2,8.1-6,14.1-3.7,22.3c2.6,9.2,5,18.2,6,27.7
		c1.6,15.6,0.2,28.4-1.3,36.4c-3.3,17.9-8.9,24.6-4.6,34c2.9,6.4,8.9,10.9,8.2,11.7c-0.6,0.6-3.9-2.3-9.3-4.8
		c-10.4-5-20.2-4.9-23.6-4.8c-7.6,0.2-13.1,2.3-16.1,3.1c-16.8,4.2-34.1,6.2-51.4,5.8c-17.2-0.4-33.8-0.5-50.5-5.6
		c-4.9-1.5-9.8-3.3-14.9-3.8c-3.3-0.3-6.9,0-10,1.2C161.5,143.1,159.7,144.4,159.2,143.8z"/>
	<g id="XMLID_3_">
		<path id="XMLID_4_" class="st3" d="M320.8,118.8c0-0.3,0.1-0.5,0.2-0.7c13.4-18.4,13.4-48.4,0.2-66.8c-0.3-0.4-0.3-1.1,0-1.5
			c0.3-0.4,0.8-0.4,1.1,0c13.9,19.3,13.8,50.6-0.2,69.8c-0.3,0.4-0.8,0.4-1.1,0C320.9,119.4,320.8,119.1,320.8,118.8L320.8,118.8z
			 M320.8,118.8"/>
		<path id="XMLID_7_" class="st3" d="M317.7,111.7c0-0.3,0.1-0.6,0.2-0.8c9.4-14.4,9.4-37.8,0-52.2c-0.3-0.5-0.3-1.2,0-1.7
			c0.3-0.5,0.8-0.5,1.1,0c10.1,15.3,10.1,40.3,0,55.6c-0.3,0.5-0.8,0.5-1.1,0C317.7,112.3,317.7,112,317.7,111.7L317.7,111.7z
			 M317.7,111.7"/>
	</g>
	<g id="XMLID_10_">
		<path id="XMLID_13_" class="st3" d="M176.4,118.8c0,0.3-0.1,0.5-0.2,0.8c-0.3,0.4-0.8,0.4-1.1,0c-14-19.2-14.1-50.6-0.2-69.8
			c0.3-0.4,0.8-0.4,1.1,0c0.3,0.4,0.3,1.1,0,1.5c-13.3,18.5-13.2,48.4,0.2,66.8C176.4,118.3,176.4,118.6,176.4,118.8L176.4,118.8z
			 M176.4,118.8"/>
		<path id="XMLID_11_" class="st3" d="M179.6,111.7c0,0.3-0.1,0.6-0.2,0.8c-0.3,0.5-0.8,0.5-1.1,0c-10.1-15.3-10.1-40.3,0-55.6
			c0.3-0.5,0.8-0.5,1.1,0c0.3,0.5,0.3,1.2,0,1.7c-9.4,14.4-9.4,37.8,0,52.2C179.5,111.1,179.6,111.4,179.6,111.7L179.6,111.7z
			 M179.6,111.7"/>
	</g>
	<path id="XMLID_305_" class="st4" d="M274.2,67.7l-11.8-9.9l-3.3,3.9l11.8,9.9L274.2,67.7z M238,61.7l-3.3-3.9l-11.8,9.9l3.3,3.9
		L238,61.7z M249.8,73.5H246v15.4l12.2,7.3l1.9-3.2L249.8,87V73.5z M248.6,63.3c-12.8,0-23.1,10.3-23.1,23.1s10.3,23.1,23.1,23.1
		c12.8,0,23.1-10.3,23.1-23.1S261.3,63.3,248.6,63.3z M248.6,104.3c-9.9,0-18-8-18-18s8-18,18-18c9.9,0,18,8,18,18
		S258.5,104.3,248.6,104.3z"/>
</g>
<text id="XMLID_56_" transform="matrix(1 0 0 1 15.1943 273.1369)"><tspan x="0" y="0" class="st2 st5 st6 st7">wake</tspan><tspan x="310.8" y="0" class="st2 st5 st6 st8"> </tspan><tspan x="340.1" y="0" class="st2 st5 st6 st7">up</tspan></text>
</svg>
